<svg width="132" height="37" viewBox="0 0 132 37" fill="none" xmlns="http://www.w3.org/2000/svg">
<path d="M130 2H2V35H130V2Z" stroke="white" stroke-width="3"/>
<path d="M66 2V35" stroke="white" stroke-width="3"/>
<path d="M80.2949 20.3711C80.1517 21.888 79.5918 23.0729 78.6152 23.9258C77.6387 24.7721 76.3398 25.1953 74.7188 25.1953C73.5859 25.1953 72.5866 24.9284 71.7207 24.3945C70.8613 23.8542 70.1973 23.0892 69.7285 22.0996C69.2598 21.11 69.0156 19.9609 68.9961 18.6523V17.3242C68.9961 15.9831 69.2337 14.8014 69.709 13.7793C70.1842 12.7572 70.8646 11.9694 71.75 11.416C72.6419 10.8626 73.6706 10.5859 74.8359 10.5859C76.4049 10.5859 77.668 11.0124 78.625 11.8652C79.582 12.7181 80.1387 13.9225 80.2949 15.4785H77.834C77.7168 14.4564 77.4173 13.7207 76.9355 13.2715C76.4603 12.8158 75.7604 12.5879 74.8359 12.5879C73.7617 12.5879 72.9349 12.9818 72.3555 13.7695C71.7826 14.5508 71.4896 15.6999 71.4766 17.2168V18.4766C71.4766 20.013 71.75 21.1849 72.2969 21.9922C72.8503 22.7995 73.6576 23.2031 74.7188 23.2031C75.6888 23.2031 76.418 22.985 76.9062 22.5488C77.3945 22.1126 77.7038 21.3867 77.834 20.3711H80.2949ZM93.8008 25H91.3398V18.6816H84.9824V25H82.5117V10.7812H84.9824V16.6992H91.3398V10.7812H93.8008V25ZM105.041 18.6523H99.2012V23.0273H106.027V25H96.7305V10.7812H105.959V12.7734H99.2012V16.6992H105.041V18.6523ZM116.232 18.9746H110.51V25H108.039V10.7812H117.072V12.7734H110.51V17.002H116.232V18.9746Z" fill="white"/>
<rect x="2" y="2" width="62" height="32" fill="#EF7878"/>
<rect x="2" y="2" width="62" height="32" stroke="white"/>
<path d="M17.8242 20.1895H12.1992V26H9.26953V11.7812H18.5273V14.1543H12.1992V17.8262H17.8242V20.1895ZM31.9062 19.2129C31.9062 20.6126 31.6589 21.8398 31.1641 22.8945C30.6693 23.9492 29.9596 24.763 29.0352 25.3359C28.1172 25.9089 27.0625 26.1953 25.8711 26.1953C24.6927 26.1953 23.6413 25.9121 22.7168 25.3457C21.7923 24.7793 21.0762 23.972 20.5684 22.9238C20.0605 21.8691 19.8034 20.6582 19.7969 19.291V18.5879C19.7969 17.1882 20.0475 15.9577 20.5488 14.8965C21.0566 13.8288 21.7695 13.0117 22.6875 12.4453C23.612 11.8724 24.6667 11.5859 25.8516 11.5859C27.0365 11.5859 28.0879 11.8724 29.0059 12.4453C29.9303 13.0117 30.6432 13.8288 31.1445 14.8965C31.6523 15.9577 31.9062 17.1849 31.9062 18.5781V19.2129ZM28.9375 18.5684C28.9375 17.0775 28.6706 15.9447 28.1367 15.1699C27.6029 14.3952 26.8411 14.0078 25.8516 14.0078C24.8685 14.0078 24.11 14.3919 23.5762 15.1602C23.0423 15.9219 22.7721 17.0417 22.7656 18.5195V19.2129C22.7656 20.6647 23.0326 21.791 23.5664 22.5918C24.1003 23.3926 24.8685 23.793 25.8711 23.793C26.8542 23.793 27.6094 23.4089 28.1367 22.6406C28.6641 21.8659 28.931 20.7396 28.9375 19.2617V18.5684ZM45.7148 19.2129C45.7148 20.6126 45.4674 21.8398 44.9727 22.8945C44.4779 23.9492 43.7682 24.763 42.8438 25.3359C41.9258 25.9089 40.8711 26.1953 39.6797 26.1953C38.5013 26.1953 37.4499 25.9121 36.5254 25.3457C35.6009 24.7793 34.8848 23.972 34.377 22.9238C33.8691 21.8691 33.612 20.6582 33.6055 19.291V18.5879C33.6055 17.1882 33.8561 15.9577 34.3574 14.8965C34.8652 13.8288 35.5781 13.0117 36.4961 12.4453C37.4206 11.8724 38.4753 11.5859 39.6602 11.5859C40.8451 11.5859 41.8965 11.8724 42.8145 12.4453C43.7389 13.0117 44.4518 13.8288 44.9531 14.8965C45.4609 15.9577 45.7148 17.1849 45.7148 18.5781V19.2129ZM42.7461 18.5684C42.7461 17.0775 42.4792 15.9447 41.9453 15.1699C41.4115 14.3952 40.6497 14.0078 39.6602 14.0078C38.6771 14.0078 37.9186 14.3919 37.3848 15.1602C36.8509 15.9219 36.5807 17.0417 36.5742 18.5195V19.2129C36.5742 20.6647 36.8411 21.791 37.375 22.5918C37.9089 23.3926 38.6771 23.793 39.6797 23.793C40.6628 23.793 41.418 23.4089 41.9453 22.6406C42.4727 21.8659 42.7396 20.7396 42.7461 19.2617V18.5684ZM47.8438 26V11.7812H52.2188C53.4688 11.7812 54.5853 12.0645 55.5684 12.6309C56.5579 13.1908 57.3294 13.9915 57.8828 15.0332C58.4362 16.0684 58.7129 17.2467 58.7129 18.5684V19.2227C58.7129 20.5443 58.4395 21.7194 57.8926 22.748C57.3522 23.7767 56.5872 24.5742 55.5977 25.1406C54.6081 25.707 53.4915 25.9935 52.248 26H47.8438ZM50.7734 14.1543V23.6465H52.1895C53.3353 23.6465 54.2109 23.2721 54.8164 22.5234C55.4219 21.7747 55.7311 20.7038 55.7441 19.3105V18.5586C55.7441 17.1133 55.4447 16.0195 54.8457 15.2773C54.2467 14.5286 53.3711 14.1543 52.2188 14.1543H50.7734Z" fill="white"/>
</svg>
